<?xml version="1.0" encoding="UTF-8"?>
<svg width="1000" height="700" xmlns="http://www.w3.org/2000/svg">
  <defs>
    <style>
      .component { fill: #ffffff; stroke: #333333; stroke-width: 2; }
      .pin { fill: #e0e0e0; stroke: #666666; stroke-width: 1; }
      .power { fill: #ff4444; }
      .ground { fill: #44aa44; }
      .data { fill: #4444ff; }
      .button { fill: #ffaa44; }
      .audio { fill: #aa44ff; }
      .text { font-family: Arial, sans-serif; font-size: 11px; }
      .title { font-family: Arial, sans-serif; font-size: 14px; font-weight: bold; }
      .connection { stroke: #333333; stroke-width: 2; }
      .power-line { stroke: #ff4444; stroke-width: 3; }
      .ground-line { stroke: #44aa44; stroke-width: 3; }
      .data-line { stroke: #4444ff; stroke-width: 2; }
      .button-line { stroke: #ffaa44; stroke-width: 2; }
      .audio-line { stroke: #aa44ff; stroke-width: 2; }
    </style>
  </defs>

  <!-- Background -->
  <rect width="1000" height="700" fill="#f8f8f8"/>

  <!-- Title -->
  <text x="500" y="25" text-anchor="middle" class="title">ESP32-S3 Video Player - System Components</text>

  <!-- ESP32-S3 Board -->
  <rect x="30" y="50" width="180" height="120" class="component" rx="8"/>
  <text x="120" y="70" text-anchor="middle" class="title">ESP32-S3</text>
  <text x="120" y="90" text-anchor="middle" class="text">Microcontroller</text>
  <text x="120" y="105" text-anchor="middle" class="text">Main Control Unit</text>
  <text x="120" y="120" text-anchor="middle" class="text">GPIO, SPI, Serial</text>
  <text x="120" y="135" text-anchor="middle" class="text">3.3V Power</text>
  <text x="120" y="150" text-anchor="middle" class="text">GND</text>

  <!-- TFT Display -->
  <rect x="280" y="50" width="120" height="100" class="component" rx="5"/>
  <text x="340" y="70" text-anchor="middle" class="title">TFT Display</text>
  <text x="340" y="85" text-anchor="middle" class="text">ST7735 1.8"</text>
  <text x="340" y="100" text-anchor="middle" class="text">128x160 Resolution</text>
  <text x="340" y="115" text-anchor="middle" class="text">SPI Interface</text>
  <text x="340" y="130" text-anchor="middle" class="text">Pre-soldered</text>

  <!-- DFPlayer Mini -->
  <rect x="280" y="180" width="120" height="80" class="component" rx="5"/>
  <text x="340" y="200" text-anchor="middle" class="title">DFPlayer Mini</text>
  <text x="340" y="215" text-anchor="middle" class="text">TF-16P Module</text>
  <text x="340" y="230" text-anchor="middle" class="text">Serial Communication</text>
  <text x="340" y="245" text-anchor="middle" class="text">MP3 Playback</text>

  <!-- Buttons -->
  <rect x="450" y="50" width="100" height="120" class="component" rx="5"/>
  <text x="500" y="70" text-anchor="middle" class="title">Buttons</text>
  <text x="500" y="85" text-anchor="middle" class="text">9 Video Buttons</text>
  <text x="500" y="100" text-anchor="middle" class="text">1 Menu Button</text>
  <text x="500" y="115" text-anchor="middle" class="text">GPIO Input</text>
  <text x="500" y="130" text-anchor="middle" class="text">Pull-up Resistors</text>
  <text x="500" y="145" text-anchor="middle" class="text">Debounced</text>

  <!-- Buzzer -->
  <rect x="450" y="200" width="70" height="60" class="component" rx="5"/>
  <text x="485" y="220" text-anchor="middle" class="title">Buzzer</text>
  <text x="485" y="235" text-anchor="middle" class="text">Button Feedback</text>
  <text x="485" y="250" text-anchor="middle" class="text">Tone Output</text>

  <!-- Speakers -->
  <rect x="450" y="280" width="100" height="60" class="component" rx="5"/>
  <text x="500" y="300" text-anchor="middle" class="title">Speakers</text>
  <text x="500" y="315" text-anchor="middle" class="text">Audio Output</text>
  <text x="500" y="330" text-anchor="middle" class="text">Stereo</text>

  <!-- Power Supply -->
  <rect x="30" y="200" width="120" height="60" class="component" rx="5"/>
  <text x="90" y="220" text-anchor="middle" class="title">Power</text>
  <text x="90" y="235" text-anchor="middle" class="text">3.3V Supply</text>
  <text x="90" y="250" text-anchor="middle" class="text">Stable Power</text>

  <!-- MicroSD Card -->
  <rect x="200" y="200" width="80" height="60" class="component" rx="5"/>
  <text x="240" y="220" text-anchor="middle" class="title">MicroSD</text>
  <text x="240" y="235" text-anchor="middle" class="text">MP3 Files</text>
  <text x="240" y="250" text-anchor="middle" class="text">0001.mp3, etc.</text>

  <!-- Legend -->
  <rect x="600" y="50" width="250" height="150" class="component" rx="5"/>
  <text x="725" y="70" text-anchor="middle" class="title">Legend</text>
  
  <rect x="610" y="85" width="12" height="6" class="power"/>
  <text x="630" y="91" class="text">Power Distribution</text>
  
  <rect x="610" y="95" width="12" height="6" class="ground"/>
  <text x="630" y="101" class="text">Ground Distribution</text>
  
  <rect x="610" y="105" width="12" height="6" class="data"/>
  <text x="630" y="111" class="text">Data Communication</text>
  
  <rect x="610" y="115" width="12" height="6" class="button"/>
  <text x="630" y="121" class="text">Button Control</text>
  
  <rect x="610" y="125" width="12" height="6" class="audio"/>
  <text x="630" y="131" class="text">Audio Signal</text>
  
  <!-- Notes -->
  <rect x="600" y="220" width="250" height="120" class="component" rx="5"/>
  <text x="725" y="240" text-anchor="middle" class="title">System Overview</text>
  
  <text x="610" y="260" class="text">• ESP32-S3 controls all components</text>
  <text x="610" y="275" class="text">• Display shows video and UI</text>
  <text x="610" y="290" class="text">• DFPlayer handles audio playback</text>
  <text x="610" y="305" class="text">• Buttons provide user input</text>
  <text x="610" y="320" class="text">• Buzzer gives tactile feedback</text>
  <text x="610" y="335" class="text">• Speakers output synchronized audio</text>

</svg> 